<svg version="1.1" xmlns="http://www.w3.org/2000/svg" width="440px" height="183px" viewBox="0 0 440 183">
	<style>
		.primary {
			fill: #222222;

			@media (prefers-color-scheme: dark) {
				fill: #ffffff;
			}
		}
	</style>
	<polygon class="primary" points="49.4,67 46.2,67 46.2,70.8 42.4,70.8 42.4,74.1 46.2,74.1 46.2,77.9 47.3,77.9 47.3,82.8 48.3,82.8 
	48.3,77.9 49.4,77.9 49.4,74.1 53.2,74.1 53.2,70.8 49.4,70.8 " />
	<path class="primary"
		d="M13.9,31.3c3.3-4.8,3.8-4.9,3.8-4.9s-3.1-1-5,1.9c-3.2,4.8-3.8,4.9-3.8,4.9S12,34.1,13.9,31.3z" />
	<path class="primary" d="M33.6,115.8l38.3,38.3c-2.2-9.7-7-18.8-14.4-26.3l-17.9-17.9L33.6,115.8z" />
	<path class="primary" d="M22.4,127l49.7,49.7c0.7-3.6,1-7.2,1-10.8l-44.8-44.8L22.4,127z" />
	<path class="primary" d="M11.2,138.2L56,183c3.6,0,7.2-0.3,10.8-1l-49.7-49.7L11.2,138.2z" />
	<path class="primary" d="M9.9,44.7l5.6,13.6l-7,14.2c0,0,5.3,10.6,7,20c1.6,9.1,0.3,23.3,0.3,23.3l26.1-13.2c1.1,1.8,2.5,3.6,4.1,5.3
	c4.4,4.4,5.9,5.9,5.9,5.9l20.3-20.3l-1.3-1.3c-8.2-7.6-11.7-14.8-11.7-24.1v-9.9l5.6-13.5c1-0.4,1.7-1.3,1.7-2.5
	c0-1.5-1.2-2.7-2.7-2.7s-2.7,1.2-2.7,2.7c0,0.7,0.2,1.3,0.6,1.7c-0.8,2.3-2.7,4.1-5.1,4.7c-1.2-3.2-1.1-6.9,0.5-10.3
	c1.5-3,4-5.1,7-6.2c-1.9-2.4-3-5.6-2.7-8.9s1.8-6.3,4.1-8.4c-1.5-0.3-6.1-1-11.2,1.9c-2.8-2.1-4.6-5.4-4.6-9.2
	c0-0.8,0.1-1.7,0.3-2.5c-1.3,0.5-2.6,0.8-4.1,0.8c-4.1,0-7.7-2.4-9.5-5.8c-1.6,2.5-4.4,4.2-7.7,4.2c-3.2,0-6-1.7-7.6-4.2
	c0.7,7.5-1.6,16.4-8,21.1l1.7,2.3c1-0.8,2.1-1.7,3-2.6c0.4-0.4,0.8-0.7,1.3-0.6c0.8,0,1.5,0.7,1.5,1.5c0,0.4-0.1,0.7-0.3,0.9
	c-0.4,0.9-0.7,1.9-0.7,3c0,1,0.2,2,0.6,2.9l2.6-1.2c-1.2-2.6,0.9-5.1,4.2-7.5c2.4-1.8,4.9-3.4,6.7-3.4c2,0,3.7,1.7,3.7,3.7
	c0,2.3-2.3,4.1-4,5.2c-6.5,4.1-13.1,7.1-16.2,14.4c-1.3,3-1.7,6.2-1.8,7.9c-1.7-1.1-2.6-2.8-3-3.8c0.4-0.5,0.6-1.1,0.6-1.7
	c0-1.5-1.2-2.7-2.7-2.7s-2.7,1.2-2.7,2.7C8.1,43.4,8.8,44.4,9.9,44.7z M28.6,105.7l-9.3,4.7c0.2-5.1,0.3-12.7-0.7-18.5
	c-1.2-6.7-4.1-13.9-5.8-17.8h15.8V105.7z M31.8,104.1V70.8h-19l5.9-12h17.5v9.3c0,2.8,0,8.5,0.4,14.7c0.4,6,1.2,11.8,3.7,17
	L31.8,104.1z M67.6,93.5l-15.7,15.6l-3.6-3.6c-6.1-6.1-7.8-13.6-8.4-23c-0.3-4.4-0.4-9.1-0.4-14.5v-9.3H56l0,0V68
	C56,77.9,59.5,85.6,67.6,93.5z M20.2,41.2c3-7.6,12.5-11.3,17-14.5c1.2-0.9,3.7-3.3,3.6-6.5c-0.1-3.7-3-6.7-6.7-6.7
	c-3.5,0-8.5,3.9-10.9,6.3c-0.7-1.1-1.4-1.6-2.5-2c2.2-3.8,3-7.3,3.6-11.2c1.4,0.6,3,1,4.7,1c2.8,0,5.3-0.9,7.4-2.5
	c2.5,2.5,5.9,4.1,9.7,4.1c0.3,0,0.6,0,0.9,0c0.4,3.8,2.2,7.2,5,9.6c-1.6,1.4-3,2.9-4.3,4.8c-2.8,4.2-5.8,6.3-7.8,7.3
	c-1.8,0.9-3.1,1.2-3.6,1.2c0.2,1.1,0.3,2.1,0.3,3.2c0,2-0.4,3.9-1.1,5.6l2.8,1.1c0.8-2.1,1.3-4.4,1.3-6.7c0-0.3,0-0.5,0-0.8
	c2.8-1.1,6.9-3.5,10.7-9.1c3.1-4.6,6.7-6.4,9.5-7.1c-0.6,1.5-1.1,3.2-1.2,4.9c-0.2,2.8,0.3,5.6,1.4,8c-2.2,1.5-4.1,3.5-5.4,6.1
	c-1.9,3.8-2.1,8-1,11.8c-2.7-0.4-4.8-2.2-5.8-4.7c0.5-0.5,0.9-1.2,0.9-2c0-1.5-1.2-2.7-2.7-2.7s-2.7,1.2-2.7,2.7
	c0,0.8,0.3,1.5,0.9,2c-1.1,2.8-3.8,4.8-6.9,4.8c-3.2,0-5.9-2-6.9-4.8c0.5-0.5,0.9-1.2,0.9-2c0-1.5-1.2-2.7-2.7-2.7s-2.7,1.2-2.7,2.7
	c0,0.8,0.3,1.5,0.9,2c-1.1,2.8-3.8,4.8-6.9,4.8c-0.4,0-0.7,0-1-0.1C18.8,47.6,19,44.3,20.2,41.2z M19.8,52c3.7,0,6.9-1.9,8.7-4.7
	c1.9,2.8,5.1,4.7,8.7,4.7c3.7,0,6.9-1.9,8.7-4.7c1.9,2.8,5.1,4.7,8.7,4.7c1.5,0,2.8-0.3,4.1-0.8L57,55.6H17.6l-1.9-4.5
	C17,51.7,18.4,52,19.8,52z" />
	<path class="primary" d="M0,149.4l17.9,17.9c7.5,7.5,16.6,12.3,26.3,14.4L5.9,143.4L0,149.4z" />
	<path class="primary"
		d="M27.3,9.8c-0.9,0-1.7,0.8-1.7,1.7s0.8,1.7,1.7,1.7s1.7-0.8,1.7-1.7C29,10.6,28.2,9.8,27.3,9.8z" />
	<path class="primary" d="M115.6,83.7c6.7,0,11-1.9,15-5.5v-13h-15.8v4.9h10.7v5.6c-2.5,2-5.8,3-9.9,3c-8.1,0-14-5.9-14-14.1
	c0-8.1,5.8-14.1,13.4-14.1c6.5,0,9,2.9,11,5.1l3.8-3.5c-3.3-3.9-7.7-6.5-14.7-6.5c-10.6,0-18.9,8.4-18.9,19.1
	C96.1,75.4,104.5,83.7,115.6,83.7z" />
	<path class="primary"
		d="M292.5,45.4l-15.6,37.8h5.4l3.1-7.6h15.9l3.1,7.6h5.4l-15.6-37.8H292.5z M287.4,70.7l6-14.6l6,14.6H287.4z" />
	<path class="primary" d="M387.2,83.2l3.1-7.6h15.9l3.1,7.6h5.4l-15.6-37.8h-1.7l-15.6,37.8H387.2z M398.3,56.1L398.3,56.1l6,14.6h-12
	L398.3,56.1z" />
	<polygon class="primary" points="177.7,56.7 201.5,83.7 203.1,83.7 203.1,45.9 198.1,45.9 198.1,72.4 174.3,45.4 172.7,45.4 172.7,83.2 
	177.7,83.2 " />
	<polygon class="primary" points="144.9,70.1 161,70.1 161,65.2 144.9,65.2 144.9,50.8 162.9,50.8 162.9,45.9 139.7,45.9 139.7,83.2 
	163.6,83.2 163.6,78.3 144.9,78.3 " />
	<polygon class="primary"
		points="367.9,83.2 373.2,83.2 373.2,50.8 384.2,50.8 384.2,45.9 356.9,45.9 356.9,50.8 367.9,50.8 " />
	<rect x="344.7" y="45.9" class="primary" width="5.3" height="37.3" />
	<polygon class="primary" points="237.6,78.3 218.8,78.3 218.8,70.1 234.9,70.1 234.9,65.2 218.8,65.2 218.8,50.8 236.8,50.8 236.8,45.9 
	213.6,45.9 213.6,83.2 237.6,83.2 " />
	<polygon class="primary" points="337.9,78.3 321.4,78.3 321.4,45.9 316.1,45.9 316.1,83.2 337.9,83.2 " />
	<polygon class="primary"
		points="412.4,45.9 412.4,50.8 423.4,50.8 423.4,83.2 428.6,83.2 428.6,50.8 440,50.8 440,45.9 " />
	<path class="primary" d="M264.2,71.4c5.1-2.2,7.8-6.3,7.8-12c0-8.5-5.8-13.6-15.6-13.6h-9.9v37.3h5.3V72.9h4.6c0.9,0,1.7,0,2.5-0.1
	l7,10.4h6.4L264.2,71.4z M256.2,68.1h-4.4V50.8h4.4c7,0,10.4,2.8,10.4,8.7C266.6,65.3,263.2,68.1,256.2,68.1z" />
	<polygon class="primary" points="387.8,126.5 364.1,99.5 362.4,99.5 362.4,137.3 367.5,137.3 367.5,110.8 391.2,137.8 392.9,137.8 
	392.9,100 387.8,100 " />
	<path class="primary" d="M287.9,132.8c-7.9,0-13.7-5.9-13.7-14.1c0-8.1,5.8-14.1,13.4-14.1c5.5,0,8.8,2.5,11.2,5.8l4.1-3
	c-3.2-4.5-8-7.8-15.3-7.8c-10.8,0-18.9,8.2-18.9,19.1s8.1,19.1,19,19.1c7.6,0,12.6-3.3,16.1-8.2l-4.2-3
	C297.1,130.2,293.4,132.8,287.9,132.8z" />
	<path class="primary" d="M145.5,99.5l-15.6,37.8h5.4l3.1-7.6h15.9l3.1,7.6h5.4l-15.6-37.8C147.2,99.5,145.5,99.5,145.5,99.5z
	 M140.3,124.8l6-14.6l6,14.6H140.3z" />
	<polygon class="primary" points="126.8,100 116,126.8 105.2,100 99.6,100 115.2,137.8 116.9,137.8 132.5,100 " />
	<path class="primary" d="M338.8,99.5l-15.6,37.8h5.4l3.1-7.6h15.9l3.1,7.6h5.4l-15.6-37.8C340.5,99.5,338.8,99.5,338.8,99.5z
	 M333.7,124.8l6-14.6l6,14.6H333.7z" />
	<path class="primary" d="M414.8,99.5l-15.6,37.8h5.4l3.1-7.6h15.9l3.1,7.6h5.4l-15.6-37.8C416.5,99.5,414.8,99.5,414.8,99.5z
	 M409.6,124.8l6-14.6l6,14.6H409.6z" />
	<polygon class="primary" points="256.1,126.5 232.4,99.5 230.7,99.5 230.7,137.3 235.8,137.3 235.8,110.8 259.5,137.8 261.2,137.8 
	261.2,100 256.1,100 " />
	<rect x="311.6" y="100" class="primary" width="5.3" height="37.3" />
	<polygon class="primary" points="203,124.1 219,124.1 219,119.3 203,119.3 203,104.9 221,104.9 221,100 197.7,100 197.7,137.3 
	221.7,137.3 221.7,132.4 203,132.4 " />
	<polygon class="primary" points="174.3,100 169.1,100 169.1,137.3 190.8,137.3 190.8,132.4 174.3,132.4 " />
</svg>